<svg width="175" height="156" viewBox="0 0 175 156" fill="none" xmlns="http://www.w3.org/2000/svg">
<g opacity="0.5">
<path d="M32.925 141.2L33.4627 141.177L24.0888 150.357L23.0673 149.314L32.4412 140.134L32.4352 140.7L27.4117 135.57L27.9773 135.576L18.6034 144.755L17.5819 143.712L27.5845 133.917L39.5908 146.177L29.5881 155.973L28.5666 154.929L37.9405 145.75L37.9206 146.301L32.925 141.2Z" fill="#31463F"/>
<path d="M27.8221 133.87L26.7465 134.455C26.7065 134.369 26.6758 134.286 26.6543 134.204C26.6144 134.119 26.5762 134.048 26.5397 133.993C26.306 133.636 25.986 133.439 25.5795 133.402C25.1657 133.354 24.6992 133.42 24.1799 133.601C23.6606 133.781 23.1075 134.032 22.5204 134.352C21.9222 134.68 21.3276 135.013 20.7367 135.352L17.5087 137.249L13.2924 130.806L22.0785 125.057L22.856 126.245L14.7561 131.545L14.9105 131.014L18.0425 135.8L17.4882 135.757L20.1195 134.226C20.9001 133.763 21.6655 133.35 22.4156 132.987C23.1584 132.612 23.8504 132.342 24.4916 132.178C25.1255 132.002 25.6916 131.966 26.19 132.07C26.6772 132.182 27.0741 132.472 27.3807 132.94C27.4683 133.074 27.5485 133.221 27.621 133.381C27.6863 133.529 27.7534 133.692 27.8221 133.87Z" fill="#31463F"/>
<path d="M16.489 112.791L12.9843 114.207L13.165 113.853L14.4986 117.154C15.0031 118.403 15.1257 119.489 14.8665 120.414C14.6072 121.338 13.9584 122.01 12.9199 122.43C11.8073 122.879 10.8267 122.837 9.97806 122.302C9.11707 121.773 8.43184 120.878 7.92238 119.617L6.26662 115.519L16.002 111.585L16.489 112.791ZM19.366 119.912L14.5413 118.755L13.9869 117.382L18.7891 118.484L19.366 119.912ZM12.5949 114.364L7.5139 116.417L7.80592 116.019L9.0571 119.115C9.42172 120.018 9.87949 120.653 10.4304 121.02C10.9764 121.374 11.6388 121.394 12.4176 121.08C13.864 120.495 14.2151 119.282 13.4709 117.44L12.1822 114.25L12.5949 114.364Z" fill="#31463F"/>
<path d="M14.4695 106.568L7.97956 103.286L8.67091 103.174L4.11802 108.339L3.81821 106.767L7.59016 102.525L7.68294 103.118L2.63396 100.559L2.34164 99.0266L8.54247 102.181L7.79218 102.303L12.6107 96.8234L12.9142 98.4147L8.88508 102.909L8.85873 102.344L14.1697 104.996L14.4695 106.568Z" fill="#31463F"/>
<path d="M13.6189 69.8219L5.21417 68.0967L4.19671 73.0533L6.46479 73.6414C7.15166 73.8096 7.82145 73.9948 8.47416 74.1968C9.12954 74.3858 9.7233 74.6097 10.2554 74.8687C10.7772 75.1119 11.1889 75.3938 11.4906 75.7143C11.7793 76.0322 11.9095 76.3924 11.8813 76.795L11.3411 78.1337C11.4373 77.7315 11.362 77.3689 11.1152 77.046C10.8553 76.7205 10.4724 76.4309 9.9664 76.1773C9.46039 75.9237 8.8745 75.6946 8.20873 75.4898C7.52991 75.2824 6.83533 75.0854 6.12502 74.8988L2.72466 74.0579L4.28502 66.4564L13.9045 68.4309L13.6189 69.8219ZM14.9554 79.3248L11.2526 78.5647L13.6857 66.7118L17.3885 67.4719L17.119 68.7845L14.6309 68.2738L12.7367 77.5014L15.2249 78.0121L14.9554 79.3248Z" fill="#31463F"/>
<path d="M18.1509 58.7095C17.7582 59.6437 17.1953 60.3978 16.4622 60.9719C15.722 61.5285 14.8927 61.867 13.9744 61.9872C13.0438 62.1022 12.0991 61.9582 11.1404 61.5552C10.1693 61.147 9.4055 60.5728 8.84885 59.8326C8.2922 59.0924 7.95993 58.2657 7.85203 57.3525C7.74413 56.4393 7.88911 55.5095 8.28696 54.5631C8.68997 53.6043 9.25544 52.8441 9.98337 52.2823C10.7165 51.7081 11.5396 51.3671 12.4527 51.2592C13.3711 51.1391 14.3158 51.283 15.2868 51.6912C16.2455 52.0942 17.0094 52.6684 17.5783 53.4138C18.1401 54.1418 18.4785 54.971 18.5936 55.9016C18.6963 56.8271 18.5487 57.7631 18.1509 58.7095ZM16.9893 58.2212C17.2839 57.5206 17.3911 56.8353 17.3112 56.1653C17.219 55.4901 16.9547 54.8801 16.5185 54.3351C16.0751 53.7727 15.4786 53.3339 14.7288 53.0187C13.9667 52.6984 13.2358 52.5791 12.536 52.661C11.8415 52.7307 11.2268 52.9713 10.6922 53.3829C10.1453 53.7894 9.72716 54.3368 9.43782 55.0252C9.14847 55.7135 9.04992 56.3952 9.14216 57.0704C9.2221 57.7404 9.47761 58.354 9.90868 58.9113C10.3398 59.4685 10.9363 59.9073 11.6984 60.2277C12.4482 60.5429 13.1791 60.6621 13.8911 60.5853C14.5909 60.5034 15.2142 60.2593 15.7611 59.8528C16.2958 59.4411 16.7052 58.8973 16.9893 58.2212Z" fill="#31463F"/>
<path d="M32.684 36.1733L25.2853 28.7228L30.5645 23.4803L31.4383 24.3602L26.9112 28.8557L26.913 28.3466L33.6916 35.1727L32.684 36.1733Z" fill="#31463F"/>
<path d="M48.2484 23.5769L46.9645 21.6446L46.7042 21.3612L44.5571 18.1295C44.0627 17.3854 43.4717 16.9537 42.7841 16.8343C42.1075 16.7075 41.3584 16.9171 40.5365 17.4631C39.9701 17.8394 39.4942 18.2917 39.1088 18.8199C38.7234 19.3481 38.4563 19.8857 38.3075 20.4328L37.1879 19.9041C37.3812 19.2313 37.7224 18.5884 38.2115 17.9753C38.6933 17.3511 39.2784 16.8103 39.9669 16.3528C41.0997 15.6002 42.1597 15.3042 43.1468 15.4647C44.1376 15.6068 45.013 16.2498 45.773 17.3937L49.3811 22.8243L48.2484 23.5769ZM45.2885 25.6635C44.6333 26.0988 43.9913 26.3733 43.3624 26.487C42.7373 26.5821 42.1716 26.5258 41.6653 26.3179C41.1516 26.0989 40.7288 25.7395 40.3967 25.2398C40.0942 24.7845 39.9267 24.3035 39.8942 23.7968C39.8655 23.2716 40.0216 22.7356 40.3627 22.1889C40.7075 21.6236 41.2964 21.0643 42.1293 20.5109L45.1445 18.5076L45.7311 19.3905L42.7492 21.3717C41.9052 21.9324 41.4162 22.4734 41.2822 22.9946C41.1594 23.5085 41.2455 23.9875 41.5407 24.4317C41.8727 24.9315 42.3327 25.2022 42.9206 25.2438C43.5085 25.2854 44.1523 25.0737 44.852 24.6089C45.5183 24.1662 45.9906 23.6363 46.269 23.0191C46.551 22.3835 46.6112 21.7032 46.4497 20.9781L47.2585 21.6173C47.4201 22.3423 47.3376 23.0615 47.0111 23.7747C46.6956 24.4805 46.1214 25.1101 45.2885 25.6635Z" fill="#31463F"/>
<path d="M59.5104 18.1594C58.6722 18.5049 57.8353 18.6263 56.9998 18.5236C56.1592 18.4086 55.3856 18.0713 54.6791 17.5116C53.9797 16.9346 53.4116 16.116 52.9746 15.0559C52.5377 13.9957 52.3665 13.0207 52.4612 12.1308C52.5508 11.2286 52.8559 10.4466 53.3764 9.78505C53.8969 9.12345 54.5824 8.61736 55.433 8.26678C56.3575 7.88571 57.2698 7.75485 58.1699 7.8742C59.0772 7.97614 59.8954 8.31672 60.6245 8.89593C61.3484 9.46282 61.9111 10.2332 62.3125 11.207C62.719 12.1932 62.8651 13.1425 62.7508 14.0549C62.6366 14.9673 62.296 15.7855 61.7291 16.5095C61.1745 17.2284 60.435 17.7784 59.5104 18.1594ZM55.9399 23.7196L50.4601 10.4246L51.7174 9.90638L52.9216 12.8279L53.5924 14.8228L54.5852 16.7067L57.2527 23.1785L55.9399 23.7196ZM58.9378 17.0326C59.6282 16.7481 60.181 16.3399 60.5964 15.8082C61.0067 15.2641 61.2552 14.6425 61.342 13.9433C61.4237 13.2319 61.3096 12.5001 60.9997 11.7482C60.6897 10.9962 60.2577 10.4027 59.7034 9.96779C59.1492 9.53284 58.5348 9.26689 57.8603 9.16994C57.1858 9.073 56.5034 9.16679 55.8131 9.45132C55.1227 9.73585 54.5663 10.1527 54.1436 10.7018C53.7333 11.2459 53.4848 11.8675 53.398 12.5667C53.3236 13.2608 53.4413 13.9838 53.7512 14.7358C54.0612 15.4877 54.4896 16.0899 55.0366 16.5422C55.5909 16.9772 56.2052 17.2431 56.8797 17.3401C57.5615 17.4196 58.2475 17.3171 58.9378 17.0326Z" fill="#31463F"/>
<path d="M67.1733 15.2833L65.1339 4.98324L66.5464 4.70354L72.7813 11.6855L72.1928 11.802L75.375 2.95543L76.6699 2.69904L78.7094 12.9991L77.4341 13.2516L75.7093 4.54069L75.9877 4.60791L73.0066 12.8234L72.3788 12.9477L66.4373 6.41739L66.7199 6.30026L68.4486 15.0308L67.1733 15.2833Z" fill="#31463F"/>
<path d="M86.9826 13.1C85.9692 13.1 85.0559 12.8733 84.2426 12.42C83.4426 11.9533 82.8092 11.32 82.3426 10.52C81.8759 9.70667 81.6426 8.78 81.6426 7.74C81.6426 6.68667 81.8759 5.76 82.3426 4.96C82.8092 4.16 83.4426 3.53333 84.2426 3.08C85.0426 2.62667 85.9559 2.4 86.9826 2.4C88.0226 2.4 88.9426 2.62667 89.7426 3.08C90.5559 3.53333 91.1892 4.16 91.6426 4.96C92.1092 5.76 92.3426 6.68667 92.3426 7.74C92.3426 8.78 92.1092 9.70667 91.6426 10.52C91.1892 11.32 90.5559 11.9533 89.7426 12.42C88.9292 12.8733 88.0092 13.1 86.9826 13.1ZM86.9826 11.84C87.7426 11.84 88.4159 11.6733 89.0026 11.34C89.5892 10.9933 90.0492 10.5133 90.3826 9.9C90.7292 9.27333 90.9026 8.55333 90.9026 7.74C90.9026 6.91333 90.7292 6.19333 90.3826 5.58C90.0492 4.96667 89.5892 4.49333 89.0026 4.16C88.4159 3.81333 87.7492 3.64 87.0026 3.64C86.2559 3.64 85.5892 3.81333 85.0026 4.16C84.4159 4.49333 83.9492 4.96667 83.6026 5.58C83.2559 6.19333 83.0826 6.91333 83.0826 7.74C83.0826 8.55333 83.2559 9.27333 83.6026 9.9C83.9492 10.5133 84.4159 10.9933 85.0026 11.34C85.5892 11.6733 86.2492 11.84 86.9826 11.84Z" fill="#31463F"/>
<path d="M97.3895 13.3796L99.4289 3.07961L100.822 3.35542L99.9207 7.90705L106.415 9.19289L107.316 4.64125L108.709 4.91707L106.669 15.2171L105.276 14.9413L106.178 10.3897L99.6837 9.10382L98.7824 13.6555L97.3895 13.3796Z" fill="#31463F"/>
<path d="M115.331 18.33L119.332 8.62225L120.645 9.16337L116.643 18.8711L115.331 18.33ZM120.882 6.75168C120.61 6.6399 120.42 6.45345 120.312 6.19232C120.203 5.9312 120.202 5.6712 120.309 5.41233C120.415 5.15345 120.597 4.97583 120.853 4.87947C121.114 4.77077 121.38 4.77231 121.651 4.88409C121.923 4.99588 122.115 5.17616 122.229 5.42496C122.343 5.67376 122.346 5.92759 122.239 6.18646C122.128 6.45766 121.941 6.64761 121.68 6.75631C121.431 6.87008 121.165 6.86854 120.882 6.75168Z" fill="#31463F"/>
<path d="M128.268 25.141L134.079 16.3954L135.261 17.1812L129.451 25.9268L128.268 25.141ZM136.94 15.7751C136.751 15.6497 136.634 15.4761 136.59 15.2543C136.552 15.0214 136.6 14.8049 136.733 14.605C136.858 14.4162 137.032 14.2995 137.254 14.2548C137.483 14.1989 137.692 14.2337 137.881 14.3592C138.081 14.492 138.203 14.6693 138.248 14.8911C138.292 15.1129 138.248 15.3238 138.116 15.5237C137.983 15.7236 137.802 15.8514 137.573 15.9073C137.351 15.952 137.14 15.9079 136.94 15.7751ZM134.741 14.3142C134.541 14.1814 134.419 14.0041 134.374 13.7822C134.337 13.5493 134.385 13.3329 134.517 13.133C134.643 12.9442 134.816 12.8275 135.038 12.7827C135.267 12.7269 135.482 12.7654 135.682 12.8982C135.882 13.031 135.998 13.2047 136.032 13.4191C136.077 13.6409 136.033 13.8517 135.9 14.0517C135.767 14.2516 135.586 14.3794 135.357 14.4352C135.146 14.4874 134.941 14.447 134.741 14.3142Z" fill="#31463F"/>
<path d="M148.984 45.554L156.976 40.1634L156.862 40.6743L154.435 37.0763L155.463 36.3829L160.708 44.1593L159.68 44.8527L157.253 41.2547L157.77 41.3406L149.778 46.7312L148.984 45.554Z" fill="#31463F"/>
<path d="M157.308 61.5316L159.447 60.6326L159.774 60.43L163.351 58.9264C164.174 58.5802 164.709 58.0806 164.955 57.4275C165.207 56.7867 165.141 56.0115 164.759 55.102C164.495 54.4751 164.14 53.9229 163.694 53.4453C163.247 52.9677 162.769 52.6046 162.26 52.356L162.989 51.3552C163.613 51.6712 164.181 52.1269 164.691 52.7222C165.214 53.3123 165.636 53.9884 165.956 54.7505C166.483 56.0043 166.575 57.1009 166.233 58.0404C165.908 58.9871 165.112 59.7265 163.846 60.2587L157.835 62.7853L157.308 61.5316ZM155.813 58.2332C155.509 57.508 155.359 56.8259 155.365 56.1869C155.389 55.555 155.55 55.0099 155.849 54.5515C156.161 54.088 156.593 53.74 157.146 53.5074C157.65 53.2956 158.154 53.2212 158.658 53.2842C159.179 53.3544 159.676 53.6082 160.149 54.0457C160.64 54.4903 161.079 55.1735 161.467 56.0954L162.869 59.4326L161.892 59.8433L160.505 56.5431C160.112 55.6089 159.673 55.0272 159.186 54.798C158.704 54.581 158.217 54.5759 157.726 54.7826C157.172 55.0151 156.82 55.4162 156.669 55.9859C156.518 56.5556 156.606 57.2276 156.931 58.002C157.241 58.7395 157.673 59.3027 158.227 59.6918C158.799 60.0879 159.456 60.2746 160.198 60.2517L159.419 60.9265C158.676 60.9493 157.985 60.7336 157.346 60.2792C156.712 59.837 156.201 59.1551 155.813 58.2332Z" fill="#31463F"/>
<path d="M163.189 87.1843L162.807 86.8669L172.446 86.7996L172.456 88.2196L162.817 88.2869L163.194 87.9043L163.235 93.7641L162.852 93.3868L172.492 93.3195L172.502 94.7394L162.002 94.8127L161.901 80.2931L172.4 80.2198L172.41 81.6398L162.771 81.7071L163.148 81.3444L163.189 87.1843ZM159.704 95.1088L162.384 95.0901L162.007 95.4527L161.992 93.3128L163.232 93.3041L163.253 96.424L159.713 96.4488L159.704 95.1088Z" fill="#31463F"/>
<path d="M160.036 104.757L162.315 105.192L162.7 105.204L166.511 105.931C167.389 106.099 168.11 105.979 168.677 105.571C169.241 105.176 169.615 104.494 169.8 103.525C169.928 102.857 169.937 102.201 169.83 101.556C169.722 100.911 169.525 100.344 169.238 99.8547L170.399 99.4246C170.744 100.033 170.965 100.727 171.061 101.505C171.17 102.286 171.147 103.083 170.992 103.895C170.737 105.231 170.207 106.195 169.402 106.788C168.607 107.397 167.535 107.572 166.186 107.315L159.781 106.093L160.036 104.757ZM160.616 101.183C160.764 100.41 161.017 99.7592 161.376 99.2304C161.745 98.7171 162.181 98.3524 162.684 98.1361C163.2 97.9223 163.752 97.8716 164.342 97.9841C164.879 98.0865 165.34 98.3034 165.724 98.6347C166.12 98.9815 166.393 99.4681 166.545 100.094C166.708 100.736 166.696 101.548 166.508 102.531L165.83 106.086L164.789 105.888L165.459 102.371C165.649 101.376 165.605 100.648 165.326 100.188C165.045 99.7403 164.643 99.4667 164.119 99.3668C163.529 99.2543 163.014 99.3936 162.573 99.7845C162.132 100.175 161.833 100.784 161.675 101.609C161.525 102.394 161.574 103.103 161.82 103.733C162.077 104.38 162.52 104.899 163.152 105.29L162.129 105.421C161.498 105.029 161.042 104.467 160.761 103.735C160.477 103.016 160.429 102.165 160.616 101.183Z" fill="#31463F"/>
<path d="M155.958 116.779C156.347 115.815 156.907 115.034 157.637 114.438C158.374 113.858 159.201 113.502 160.118 113.369C161.047 113.241 161.993 113.372 162.958 113.761C163.934 114.156 164.706 114.72 165.273 115.452C165.84 116.184 166.181 117.012 166.297 117.936C166.408 118.873 166.268 119.823 165.879 120.787C165.544 121.616 165.081 122.298 164.49 122.836C163.899 123.374 163.204 123.705 162.407 123.828L162.136 122.576C162.765 122.442 163.297 122.175 163.732 121.775C164.167 121.376 164.502 120.885 164.736 120.304C165.016 119.612 165.108 118.923 165.011 118.236C164.927 117.555 164.665 116.939 164.226 116.388C163.787 115.837 163.185 115.406 162.418 115.097C161.652 114.787 160.919 114.678 160.221 114.77C159.522 114.861 158.9 115.12 158.354 115.547C157.82 115.978 157.413 116.54 157.133 117.232C156.899 117.813 156.799 118.399 156.834 118.988C156.869 119.577 157.06 120.136 157.407 120.665L156.343 121.378C155.867 120.74 155.597 120.02 155.533 119.218C155.482 118.42 155.623 117.607 155.958 116.779Z" fill="#31463F"/>
<path d="M149.892 128.41L157.958 133.688L157.443 133.782L159.819 130.15L160.857 130.829L155.721 138.678L154.683 137.999L157.06 134.367L157.181 134.877L149.114 129.598L149.892 128.41Z" fill="#31463F"/>
<path d="M138.372 142.297L141.073 144.941L140.677 144.917L143.167 142.374C144.11 141.412 145.056 140.864 146.007 140.732C146.958 140.599 147.834 140.925 148.634 141.708C149.491 142.548 149.845 143.464 149.695 144.455C149.555 145.456 149.009 146.442 148.057 147.414L144.965 150.572L137.463 143.226L138.372 142.297ZM143.746 136.81L144.617 141.694L143.582 142.751L142.668 137.91L143.746 136.81ZM141.373 145.235L145.288 149.07L144.806 148.961L147.143 146.575C147.824 145.88 148.223 145.206 148.338 144.554C148.445 143.912 148.198 143.297 147.598 142.709C146.483 141.618 145.231 141.782 143.841 143.201L141.434 145.659L141.373 145.235Z" fill="#31463F"/>
</g>
</svg>
