<svg width="96" height="86" viewBox="0 0 96 86" fill="none" xmlns="http://www.w3.org/2000/svg">
<path d="M17.9946 78.4606L18.2634 78.4493L13.5765 83.039L13.0657 82.5175L17.7527 77.9277L17.7497 78.2105L15.2379 75.6456L15.5208 75.6485L10.8338 80.2383L10.3231 79.7167L15.3244 74.8191L21.3275 80.9493L16.3262 85.8469L15.8154 85.3254L20.5024 80.7356L20.4924 81.0112L17.9946 78.4606Z" fill="#31463F"/>
<path d="M14.9846 74.2256L14.4468 74.5177C14.4269 74.475 14.4115 74.4333 14.4008 74.3925C14.3808 74.3498 14.3617 74.3145 14.3434 74.2867C14.2266 74.1081 14.0666 74.0097 13.8633 73.9913C13.6564 73.9674 13.4232 74.0005 13.1635 74.0907C12.9039 74.181 12.6273 74.3062 12.3338 74.4664C12.0347 74.6302 11.7374 74.7969 11.442 74.9663L9.82794 75.915L7.71982 72.6934L12.1128 69.8187L12.5016 70.4128L8.45166 73.063L8.52882 72.7974L10.0949 75.1906L9.81768 75.1688L11.1334 74.4034C11.5236 74.1719 11.9063 73.9653 12.2814 73.7836C12.6528 73.5964 12.9988 73.4616 13.3194 73.3792C13.6363 73.2914 13.9194 73.2734 14.1686 73.3255C14.4122 73.3812 14.6106 73.5262 14.764 73.7605C14.8078 73.8274 14.8478 73.9008 14.8841 73.9806C14.9168 74.0549 14.9503 74.1365 14.9846 74.2256Z" fill="#31463F"/>
<path d="M8.97202 63.0191L7.21964 63.7271L7.31002 63.5504L7.97682 65.2007C8.22905 65.825 8.29036 66.3683 8.16073 66.8305C8.03111 67.2927 7.70669 67.6287 7.18746 67.8385C6.63115 68.0633 6.14084 68.0421 5.71653 67.7749C5.28603 67.5102 4.94342 67.0627 4.68869 66.4322L3.86081 64.3831L8.72852 62.4164L8.97202 63.0191ZM10.4105 66.5795L7.99816 66.001L7.72095 65.3149L10.1221 65.8655L10.4105 66.5795ZM7.02493 63.8057L4.48444 64.8322L4.63045 64.633L5.25605 66.1814C5.43836 66.6326 5.66724 66.95 5.94271 67.1335C6.21568 67.3108 6.54687 67.3208 6.93629 67.1634C7.65949 66.8713 7.83504 66.2647 7.46293 65.3437L6.81861 63.7489L7.02493 63.8057Z" fill="#31463F"/>
<path d="M7.76292 59.2244L4.51795 57.5834L4.86362 57.5276L2.58717 60.1099L2.43727 59.3241L4.32325 57.2031L4.36964 57.4997L1.84514 56.2201L1.69899 55.4539L4.7994 57.0309L4.42426 57.0922L6.83351 54.3523L6.98529 55.1479L4.97071 57.3952L4.95753 57.1127L7.61302 58.4386L7.76292 59.2244Z" fill="#31463F"/>
<path d="M7.34812 39.3956L3.14575 38.533L2.63702 41.0113L3.77106 41.3053C4.11449 41.3894 4.44939 41.482 4.77574 41.583C5.10343 41.6775 5.40031 41.7895 5.66638 41.919C5.92726 42.0406 6.13312 42.1815 6.28397 42.3418C6.4283 42.5007 6.49341 42.6808 6.47932 42.8821L6.20921 43.5515C6.25729 43.3504 6.21964 43.1691 6.09625 43.0077C5.96633 42.8449 5.77487 42.7001 5.52186 42.5733C5.26886 42.4465 4.97591 42.3319 4.64303 42.2295C4.30362 42.1258 3.95633 42.0273 3.60117 41.934L1.90099 41.5136L2.68117 37.7128L7.49089 38.7001L7.34812 39.3956ZM8.01637 44.147L6.16497 43.767L7.38149 37.8405L9.23289 38.2206L9.09817 38.8769L7.85411 38.6215L6.90703 43.2353L8.15109 43.4907L8.01637 44.147Z" fill="#31463F"/>
<path d="M9.83035 33.1407C9.63401 33.6078 9.35256 33.9848 8.98602 34.2719C8.61591 34.5502 8.20127 34.7194 7.74211 34.7795C7.2768 34.837 6.80446 34.765 6.32509 34.5635C5.83957 34.3594 5.45765 34.0723 5.17933 33.7022C4.901 33.3321 4.73487 32.9188 4.68092 32.4622C4.62697 32.0056 4.69945 31.5407 4.89838 31.0675C5.09989 30.5881 5.38262 30.208 5.74658 29.9271C6.11313 29.64 6.52469 29.4695 6.98128 29.4156C7.44044 29.3555 7.91278 29.4275 8.3983 29.6315C8.87767 29.8331 9.25959 30.1202 9.54406 30.4928C9.82496 30.8568 9.99417 31.2714 10.0517 31.7368C10.1031 32.1995 10.0293 32.6675 9.83035 33.1407ZM9.24957 32.8965C9.39683 32.5462 9.45047 32.2036 9.4105 31.8686C9.36438 31.531 9.23226 31.226 9.01414 30.9535C8.79246 30.6723 8.49418 30.4529 8.11928 30.2953C7.73825 30.1351 7.37279 30.0755 7.02292 30.1165C6.67563 30.1513 6.36833 30.2716 6.10101 30.4774C5.82755 30.6806 5.61848 30.9544 5.47381 31.2985C5.32914 31.6427 5.27986 31.9835 5.32598 32.3211C5.36595 32.6561 5.49371 32.9629 5.70924 33.2416C5.92478 33.5202 6.22306 33.7396 6.6041 33.8998C6.97899 34.0574 7.34445 34.117 7.70047 34.0786C8.05034 34.0377 8.36201 33.9156 8.63547 33.7123C8.90278 33.5065 9.10749 33.2346 9.24957 32.8965Z" fill="#31463F"/>
<path d="M17.9251 20.6515L14.2257 16.9262L16.8653 14.305L17.3022 14.7449L15.0387 16.9927L15.0396 16.7381L18.4289 20.1512L17.9251 20.6515Z" fill="#31463F"/>
<path d="M26.2766 13.8939L25.6347 12.9277L25.5045 12.7861L24.431 11.1702C24.1838 10.7982 23.8883 10.5823 23.5444 10.5226C23.2062 10.4592 22.8316 10.564 22.4207 10.837C22.1375 11.0251 21.8995 11.2513 21.7068 11.5154C21.5141 11.7795 21.3806 12.0483 21.3062 12.3218L20.7463 12.0575C20.843 11.7211 21.0136 11.3996 21.2582 11.0931C21.499 10.781 21.7916 10.5106 22.1359 10.2818C22.7023 9.90553 23.2322 9.75752 23.7258 9.8378C24.2212 9.90885 24.6589 10.2303 25.0389 10.8023L26.843 13.5176L26.2766 13.8939ZM24.7967 14.9372C24.4691 15.1549 24.148 15.2921 23.8336 15.3489C23.5211 15.3965 23.2382 15.3683 22.9851 15.2644C22.7282 15.1549 22.5168 14.9752 22.3508 14.7253C22.1995 14.4977 22.1158 14.2572 22.0995 14.0038C22.0851 13.7412 22.1632 13.4733 22.3338 13.1999C22.5062 12.9173 22.8006 12.6376 23.2171 12.3609L24.7246 11.3593L25.0179 11.8007L23.527 12.7913C23.105 13.0717 22.8605 13.3422 22.7935 13.6028C22.7321 13.8597 22.7752 14.0992 22.9228 14.3213C23.0888 14.5712 23.3188 14.7065 23.6127 14.7273C23.9067 14.7481 24.2286 14.6423 24.5784 14.4099C24.9116 14.1885 25.1477 13.9236 25.2869 13.615C25.4279 13.2972 25.458 12.957 25.3773 12.5945L25.7817 12.9141C25.8625 13.2766 25.8212 13.6362 25.658 13.9928C25.5002 14.3457 25.2131 14.6605 24.7967 14.9372Z" fill="#31463F"/>
<path d="M32.5554 10.845C32.1363 11.0178 31.7179 11.0785 31.3001 11.0271C30.8798 10.9696 30.493 10.8009 30.1397 10.5211C29.7901 10.2326 29.506 9.8233 29.2875 9.29323C29.069 8.76316 28.9835 8.27565 29.0308 7.8307C29.0756 7.37958 29.2282 6.98863 29.4884 6.65783C29.7487 6.32703 30.0914 6.07398 30.5167 5.89869C30.979 5.70816 31.4351 5.64273 31.8852 5.7024C32.3388 5.75337 32.7479 5.92366 33.1124 6.21327C33.4744 6.49671 33.7558 6.8819 33.9565 7.36882C34.1597 7.86192 34.2328 8.33656 34.1756 8.79275C34.1185 9.24895 33.9482 9.65804 33.6648 10.02C33.3875 10.3795 33.0177 10.6545 32.5554 10.845ZM30.7701 13.6251L28.0302 6.97762L28.6589 6.71849L29.261 8.17927L29.5964 9.17672L30.0928 10.1186L31.4266 13.3545L30.7701 13.6251ZM32.2691 10.2816C32.6143 10.1393 32.8907 9.93527 33.0984 9.66939C33.3036 9.39736 33.4278 9.08655 33.4712 8.73697C33.5121 8.38123 33.455 8.01537 33.3001 7.63938C33.1451 7.2634 32.929 6.96667 32.6519 6.7492C32.3748 6.53172 32.0676 6.39875 31.7304 6.35027C31.3931 6.3018 31.0519 6.3487 30.7067 6.49096C30.3616 6.63323 30.0833 6.84165 29.872 7.11623C29.6669 7.38826 29.5426 7.69907 29.4992 8.04865C29.462 8.39569 29.5209 8.7572 29.6758 9.13318C29.8308 9.50916 30.045 9.81024 30.3185 10.0364C30.5956 10.2539 30.9028 10.3869 31.2401 10.4353C31.581 10.4751 31.924 10.4239 32.2691 10.2816Z" fill="#31463F"/>
<path d="M37.0882 9.19928L36.0684 4.04926L36.7747 3.90941L39.8922 7.40038L39.5979 7.45865L41.189 3.03536L41.8365 2.90716L42.8562 8.05718L42.2186 8.18343L41.3562 3.82799L41.4954 3.8616L40.0048 7.96934L39.6909 8.03149L36.7201 4.76634L36.8615 4.70777L37.7258 9.07302L37.0882 9.19928Z" fill="#31463F"/>
<path d="M47.4913 8.05C46.9846 8.05 46.528 7.93667 46.1213 7.71C45.7213 7.47667 45.4046 7.16 45.1713 6.76C44.938 6.35333 44.8213 5.89 44.8213 5.37C44.8213 4.84333 44.938 4.38 45.1713 3.98C45.4046 3.58 45.7213 3.26667 46.1213 3.04C46.5213 2.81333 46.978 2.7 47.4913 2.7C48.0113 2.7 48.4713 2.81333 48.8713 3.04C49.278 3.26667 49.5946 3.58 49.8213 3.98C50.0546 4.38 50.1713 4.84333 50.1713 5.37C50.1713 5.89 50.0546 6.35333 49.8213 6.76C49.5946 7.16 49.278 7.47667 48.8713 7.71C48.4646 7.93667 48.0046 8.05 47.4913 8.05ZM47.4913 7.42C47.8713 7.42 48.208 7.33667 48.5013 7.17C48.7946 6.99667 49.0246 6.75667 49.1913 6.45C49.3646 6.13667 49.4513 5.77667 49.4513 5.37C49.4513 4.95667 49.3646 4.59667 49.1913 4.29C49.0246 3.98333 48.7946 3.74667 48.5013 3.58C48.208 3.40667 47.8746 3.32 47.5013 3.32C47.128 3.32 46.7946 3.40667 46.5013 3.58C46.208 3.74667 45.9746 3.98333 45.8013 4.29C45.628 4.59667 45.5413 4.95667 45.5413 5.37C45.5413 5.77667 45.628 6.13667 45.8013 6.45C45.9746 6.75667 46.208 6.99667 46.5013 7.17C46.7946 7.33667 47.1246 7.42 47.4913 7.42Z" fill="#31463F"/>
<path d="M53.6525 8.25508L54.6723 3.10506L55.3687 3.24297L54.9181 5.51879L58.1651 6.1617L58.6157 3.88589L59.3122 4.02379L58.2924 9.17381L57.596 9.0359L58.0466 6.76009L54.7996 6.11717L54.349 8.39299L53.6525 8.25508Z" fill="#31463F"/>
<path d="M63.3219 10.9454L65.3225 6.0915L65.9789 6.36206L63.9783 11.2159L63.3219 10.9454ZM66.0974 5.15621C65.9618 5.10032 65.8668 5.00709 65.8125 4.87653C65.7581 4.74597 65.7576 4.61597 65.811 4.48653C65.8643 4.3571 65.955 4.26829 66.083 4.2201C66.2136 4.16575 66.3467 4.16653 66.4823 4.22242C66.6179 4.27831 66.7141 4.36845 66.771 4.49285C66.8279 4.61725 66.8297 4.74416 66.7763 4.8736C66.7204 5.0092 66.6272 5.10417 66.4966 5.15852C66.3722 5.21541 66.2391 5.21464 66.0974 5.15621Z" fill="#31463F"/>
<path d="M70.4346 14.6977L73.3399 10.3248L73.9313 10.7177L71.026 15.0906L70.4346 14.6977ZM74.7706 10.0147C74.6762 9.952 74.6178 9.86519 74.5954 9.75428C74.5768 9.63782 74.6006 9.52962 74.667 9.42967C74.7298 9.33527 74.8166 9.27689 74.9275 9.25453C75.0421 9.22661 75.1466 9.24402 75.241 9.30673C75.3409 9.37314 75.4021 9.4618 75.4244 9.5727C75.4468 9.68361 75.4248 9.78903 75.3584 9.88898C75.292 9.98894 75.2015 10.0529 75.0869 10.0808C74.976 10.1031 74.8705 10.0811 74.7706 10.0147ZM73.6711 9.28424C73.5712 9.21783 73.51 9.12918 73.4877 9.01827C73.469 8.90181 73.4929 8.79361 73.5593 8.69366C73.622 8.59926 73.7088 8.54088 73.8197 8.51852C73.9343 8.4906 74.0416 8.50985 74.1415 8.57626C74.2415 8.64266 74.2998 8.72947 74.3167 8.83669C74.339 8.9476 74.317 9.05302 74.2506 9.15297C74.1842 9.25292 74.0937 9.31686 73.9791 9.34477C73.8737 9.37082 73.7711 9.35065 73.6711 9.28424Z" fill="#31463F"/>
<path d="M81.8203 25.9357L85.8163 23.2404L85.7594 23.4958L84.5459 21.6968L85.0599 21.3501L87.6826 25.2383L87.1686 25.585L85.9551 23.786L86.2133 23.829L82.2173 26.5243L81.8203 25.9357Z" fill="#31463F"/>
<path d="M86.3272 34.57L87.3965 34.1205L87.5601 34.0192L89.3485 33.2674C89.7602 33.0944 90.0277 32.8445 90.1507 32.518C90.2764 32.1976 90.2436 31.81 90.0525 31.3552C89.9207 31.0418 89.7432 30.7657 89.5199 30.5269C89.2966 30.2881 89.0575 30.1065 88.8028 29.9822L89.1673 29.4818C89.4796 29.6398 89.7634 29.8677 90.0187 30.1653C90.2802 30.4604 90.491 30.7985 90.6512 31.1795C90.9147 31.8064 90.9607 32.3547 90.7894 32.8245C90.6268 33.2978 90.229 33.6675 89.596 33.9336L86.5907 35.1969L86.3272 34.57ZM85.5797 32.9208C85.4273 32.5582 85.3526 32.2172 85.3557 31.8977C85.3675 31.5817 85.4482 31.3092 85.5977 31.08C85.7534 30.8482 85.9695 30.6742 86.2461 30.558C86.4981 30.452 86.75 30.4148 87.0019 30.4463C87.2625 30.4814 87.5111 30.6083 87.7477 30.8271C87.993 31.0494 88.2126 31.391 88.4063 31.8519L89.1077 33.5205L88.6192 33.7259L87.9255 32.0758C87.7292 31.6087 87.5093 31.3178 87.2658 31.2032C87.025 31.0947 86.7816 31.0922 86.5358 31.1955C86.2592 31.3118 86.0832 31.5123 86.0077 31.7972C85.9322 32.082 85.9758 32.418 86.1386 32.8052C86.2936 33.174 86.5096 33.4556 86.7866 33.6501C87.0723 33.8482 87.4008 33.9415 87.7721 33.9301L87.3824 34.2675C87.0111 34.2789 86.6657 34.171 86.346 33.9438C86.0289 33.7228 85.7734 33.3818 85.5797 32.9208Z" fill="#31463F"/>
<path d="M89.5524 48.8239L89.3613 48.6653L94.1811 48.6316L94.1861 49.3416L89.3662 49.3753L89.5549 49.1839L89.5753 52.1139L89.384 51.9252L94.2039 51.8915L94.2089 52.6015L88.959 52.6382L88.9083 45.3784L94.1582 45.3417L94.1631 46.0517L89.3432 46.0853L89.532 45.904L89.5524 48.8239ZM87.81 52.7862L89.15 52.7769L88.9612 52.9582L88.9537 51.8882L89.5737 51.8839L89.5846 53.4438L87.8147 53.4562L87.81 52.7862Z" fill="#31463F"/>
<path d="M87.906 58.3385L89.0455 58.5559L89.2377 58.562L91.1434 58.9256C91.5821 59.0093 91.9431 58.9492 92.2263 58.7453C92.5083 58.548 92.6955 58.207 92.7879 57.7224C92.8517 57.3884 92.8566 57.0602 92.8027 56.7377C92.7488 56.4153 92.6502 56.1318 92.5068 55.8872L93.0874 55.6722C93.2601 55.9766 93.3704 56.3234 93.4183 56.7127C93.4728 57.1031 93.4613 57.5013 93.3838 57.9074C93.2564 58.5753 92.9914 59.0575 92.5887 59.354C92.1913 59.6582 91.6554 59.746 90.9809 59.6174L87.7786 59.0065L87.906 58.3385ZM88.1961 56.5512C88.2698 56.1649 88.3963 55.8395 88.5757 55.5751C88.7604 55.3185 88.9784 55.1361 89.2298 55.028C89.4877 54.9211 89.764 54.8957 90.0587 54.9519C90.3272 55.0032 90.5577 55.1116 90.75 55.2772C90.9477 55.4507 91.0845 55.694 91.1605 56.0071C91.2418 56.328 91.2356 56.734 91.142 57.2252L90.8028 59.0031L90.2822 58.9038L90.6176 57.1455C90.7125 56.6478 90.6903 56.2839 90.551 56.0537C90.4104 55.8301 90.2092 55.6933 89.9472 55.6433C89.6525 55.5871 89.3949 55.6567 89.1744 55.8522C88.9538 56.0476 88.8042 56.3517 88.7255 56.7642C88.6506 57.1571 88.6747 57.5113 88.7977 57.8266C88.9261 58.1497 89.1481 58.4092 89.4637 58.6051L88.9524 58.6705C88.6368 58.4746 88.4088 58.1935 88.2682 57.8274C88.1264 57.4678 88.1024 57.0424 88.1961 56.5512Z" fill="#31463F"/>
<path d="M85.6566 65.0499C85.8514 64.5677 86.1313 64.1775 86.4963 63.8792C86.8649 63.5895 87.2784 63.4115 87.7367 63.345C88.2012 63.281 88.6745 63.3464 89.1566 63.5412C89.6449 63.7385 90.0308 64.0202 90.3143 64.3864C90.5977 64.7526 90.7684 65.1666 90.8262 65.6286C90.8815 66.0967 90.8118 66.5719 90.617 67.054C90.4497 67.4682 90.2182 67.8097 89.9227 68.0785C89.6271 68.3474 89.2799 68.5127 88.881 68.5744L88.7458 67.9482C89.0605 67.8812 89.3265 67.7478 89.5438 67.548C89.7612 67.3482 89.9285 67.103 90.0459 66.8125C90.1858 66.4663 90.2315 66.1217 90.1832 65.7786C90.141 65.4381 90.0103 65.13 89.7909 64.8544C89.5714 64.5788 89.2701 64.3636 88.8869 64.2087C88.5037 64.0539 88.1374 63.9994 87.7881 64.0452C87.4389 64.0911 87.1277 64.2206 86.8546 64.4338C86.5877 64.6495 86.3843 64.9305 86.2444 65.2766C86.1271 65.5671 86.0772 65.8597 86.0947 66.1544C86.1123 66.4491 86.2078 66.7286 86.3815 66.9929L85.8492 67.3495C85.6113 67.0305 85.4764 66.6704 85.4444 66.2692C85.4185 65.8705 85.4892 65.464 85.6566 65.0499Z" fill="#31463F"/>
<path d="M82.2812 71.5121L86.3144 74.1513L86.0569 74.1979L87.2451 72.3821L87.7639 72.7216L85.1958 76.6461L84.677 76.3066L85.8652 74.4908L85.9257 74.7454L81.8925 72.1062L82.2812 71.5121Z" fill="#31463F"/>
<path d="M76.0599 79.0232L77.4102 80.3455L77.2121 80.3335L78.4575 79.0617C78.9286 78.5806 79.4019 78.307 79.8773 78.2407C80.3528 78.1744 80.7906 78.3372 81.1907 78.729C81.6193 79.1488 81.7962 79.6066 81.7213 80.1024C81.6511 80.6028 81.3781 81.096 80.9023 81.5818L79.3561 83.1608L75.6051 79.4876L76.0599 79.0232ZM78.7466 76.2796L79.1823 78.7218L78.6645 79.2505L78.2078 76.8297L78.7466 76.2796ZM77.5603 80.4925L79.5179 82.4095L79.2769 82.3555L80.4454 81.1623C80.7859 80.8146 80.985 80.4778 81.0429 80.1519C81.0961 79.8308 80.9727 79.5233 80.6726 79.2294C80.1153 78.6837 79.4892 78.7657 78.7942 79.4754L77.5908 80.7043L77.5603 80.4925Z" fill="#31463F"/>
</svg>
