<svg aria-hidden="true" style="position: absolute; width: 0; height: 0; overflow: hidden;" version="1.1" xmlns="http://www.w3.org/2000/svg" xmlns:xlink="http://www.w3.org/1999/xlink">
<defs>
<symbol id="whatsapp" viewBox="0 0 32 32">
<path d="M23.447 18.105l-4-2c-0.157-0.078-0.333-0.114-0.508-0.103s-0.345 0.068-0.492 0.165l-1.836 1.225c-0.843-0.463-1.537-1.157-2-2l1.225-1.836c0.097-0.147 0.155-0.316 0.165-0.492s-0.025-0.351-0.103-0.508l-2-4c-0.083-0.167-0.211-0.308-0.37-0.407s-0.342-0.15-0.529-0.15c-1.326 0-2.598 0.527-3.536 1.464s-1.464 2.209-1.464 3.536c0.003 2.916 1.163 5.712 3.225 7.775s4.858 3.222 7.775 3.225c0.657 0 1.307-0.129 1.913-0.381s1.158-0.619 1.622-1.084c0.464-0.464 0.833-1.016 1.084-1.622s0.381-1.257 0.381-1.913c0-0.186-0.051-0.368-0.149-0.526s-0.237-0.286-0.403-0.369zM19 22c-2.386-0.003-4.674-0.952-6.361-2.639s-2.636-3.975-2.639-6.361c-0-0.694 0.24-1.366 0.68-1.902s1.052-0.904 1.732-1.040l1.435 2.875-1.221 1.818c-0.091 0.137-0.147 0.294-0.163 0.458s0.009 0.329 0.072 0.481c0.715 1.7 2.068 3.053 3.769 3.769 0.152 0.066 0.319 0.093 0.484 0.079s0.325-0.070 0.463-0.161l1.826-1.217 2.875 1.435c-0.137 0.681-0.506 1.293-1.045 1.732s-1.212 0.678-1.907 0.675zM16 3c-2.244-0.001-4.451 0.58-6.404 1.685s-3.588 2.697-4.743 4.621c-1.156 1.924-1.793 4.115-1.851 6.358s0.466 4.464 1.521 6.445l-1.419 4.256c-0.118 0.352-0.135 0.731-0.049 1.092s0.27 0.692 0.532 0.955 0.593 0.447 0.955 0.532c0.362 0.085 0.74 0.068 1.092-0.049l4.256-1.419c1.743 0.927 3.675 1.445 5.649 1.515s3.937-0.312 5.741-1.115c1.804-0.803 3.402-2.006 4.671-3.519s2.178-3.294 2.656-5.21c0.478-1.916 0.514-3.916 0.104-5.847s-1.255-3.745-2.47-5.301c-1.215-1.557-2.769-2.816-4.544-3.682s-3.723-1.317-5.698-1.318zM16 27c-1.934 0.001-3.834-0.508-5.508-1.476-0.123-0.071-0.259-0.115-0.4-0.13s-0.283 0.001-0.418 0.046l-4.675 1.56 1.559-4.675c0.045-0.134 0.061-0.277 0.047-0.418s-0.058-0.277-0.129-0.4c-1.213-2.096-1.699-4.534-1.385-6.935s1.412-4.632 3.124-6.345 3.94-2.814 6.341-3.132c2.401-0.317 4.839 0.166 6.937 1.376s3.738 3.078 4.666 5.315c0.928 2.237 1.091 4.718 0.465 7.057s-2.007 4.407-3.928 5.882c-1.921 1.475-4.275 2.274-6.697 2.275z"></path>
</symbol>
<symbol id="tik-tok" viewBox="0 0 32 32">
<path d="M28 9c-1.591-0.002-3.116-0.634-4.241-1.759s-1.758-2.65-1.759-4.241c0-0.265-0.105-0.52-0.293-0.707s-0.442-0.293-0.707-0.293h-5c-0.265 0-0.52 0.105-0.707 0.293s-0.293 0.442-0.293 0.707v16.5c-0 0.447-0.12 0.886-0.348 1.271s-0.555 0.702-0.947 0.918c-0.392 0.216-0.835 0.322-1.282 0.309s-0.882-0.147-1.26-0.386c-0.378-0.239-0.685-0.575-0.889-0.974s-0.297-0.844-0.27-1.29c0.027-0.447 0.174-0.878 0.424-1.248s0.596-0.667 1-0.859c0.171-0.081 0.315-0.209 0.417-0.369s0.155-0.345 0.155-0.535v-5.336c0-0.146-0.032-0.291-0.094-0.423s-0.152-0.25-0.264-0.344c-0.112-0.094-0.243-0.162-0.384-0.2s-0.289-0.044-0.433-0.018c-4.461 0.795-7.825 4.872-7.825 9.485 0 2.52 1.001 4.936 2.782 6.717s4.198 2.783 6.718 2.783c2.52 0 4.936-1.001 6.717-2.783s2.783-4.198 2.783-6.717v-4.964c1.852 0.966 3.911 1.469 6 1.464 0.265 0 0.52-0.105 0.707-0.293s0.293-0.442 0.293-0.707v-5c0-0.265-0.105-0.52-0.293-0.707s-0.442-0.293-0.707-0.293zM27 13.955c-1.954-0.173-3.825-0.871-5.416-2.019-0.149-0.107-0.326-0.172-0.509-0.185s-0.367 0.024-0.531 0.108c-0.164 0.084-0.301 0.212-0.397 0.369s-0.146 0.338-0.146 0.522v6.75c0 1.989-0.79 3.897-2.197 5.303s-3.314 2.197-5.303 2.197c-1.989 0-3.897-0.79-5.303-2.197s-2.197-3.314-2.197-5.303c0-3.237 2.080-6.141 5-7.2v3.459c-0.646 0.432-1.17 1.024-1.52 1.718s-0.513 1.468-0.475 2.244c0.038 0.777 0.277 1.53 0.693 2.187s0.995 1.195 1.681 1.561c0.686 0.367 1.455 0.549 2.232 0.53s1.536-0.239 2.203-0.639 1.219-0.965 1.602-1.642c0.383-0.677 0.585-1.441 0.584-2.218v-15.5h3.063c0.225 1.761 1.028 3.398 2.284 4.654s2.892 2.059 4.654 2.284v3.017z"></path>
</symbol>
<symbol id="telegram" viewBox="0 0 32 32">
<path d="M29.61 3.274c-0.155-0.134-0.343-0.223-0.545-0.257s-0.409-0.013-0.6 0.061l-25.332 9.914c-0.359 0.14-0.663 0.392-0.866 0.719s-0.294 0.712-0.26 1.095c0.034 0.384 0.192 0.746 0.45 1.032s0.602 0.481 0.98 0.555l6.564 1.289v7.319c-0.001 0.399 0.117 0.789 0.34 1.119s0.54 0.587 0.91 0.735c0.37 0.151 0.776 0.187 1.166 0.104s0.747-0.282 1.023-0.57l3.165-3.283 5.021 4.395c0.362 0.321 0.83 0.499 1.314 0.5 0.212-0 0.423-0.033 0.625-0.099 0.33-0.105 0.627-0.294 0.861-0.549s0.397-0.567 0.473-0.905l5.074-22.073c0.045-0.199 0.036-0.407-0.028-0.601s-0.179-0.367-0.333-0.501zM21.967 7.774l-11.199 8.020-6.2-1.216 17.399-6.804zM12 25v-5.935l3.099 2.717-3.099 3.217zM22.941 26l-10.335-9.062 14.875-10.661-4.54 19.724z"></path>
</symbol>
<symbol id="map-pin" viewBox="0 0 32 32">
<path d="M16 8c-0.989 0-1.956 0.293-2.778 0.843s-1.463 1.33-1.842 2.244c-0.378 0.914-0.477 1.919-0.285 2.889s0.669 1.861 1.368 2.56c0.699 0.699 1.59 1.175 2.56 1.368s1.975 0.094 2.889-0.285c0.914-0.378 1.695-1.019 2.244-1.841s0.843-1.789 0.843-2.778c0-1.326-0.527-2.598-1.464-3.536s-2.209-1.464-3.536-1.464zM16 16c-0.593 0-1.173-0.176-1.667-0.506s-0.878-0.798-1.105-1.346c-0.227-0.548-0.286-1.151-0.171-1.733s0.401-1.117 0.821-1.536c0.42-0.42 0.954-0.705 1.536-0.821s1.185-0.056 1.733 0.171c0.548 0.227 1.017 0.612 1.346 1.105s0.506 1.073 0.506 1.667c0 0.796-0.316 1.559-0.879 2.121s-1.326 0.879-2.121 0.879zM16 2c-2.916 0.003-5.712 1.163-7.775 3.225s-3.222 4.858-3.225 7.775c0 3.925 1.814 8.085 5.25 12.031 1.544 1.783 3.282 3.389 5.181 4.788 0.168 0.118 0.369 0.181 0.574 0.181s0.406-0.063 0.574-0.181c1.896-1.399 3.63-3.005 5.171-4.788 3.431-3.946 5.25-8.106 5.25-12.031-0.003-2.916-1.163-5.712-3.225-7.775s-4.858-3.222-7.775-3.225zM16 27.75c-2.066-1.625-9-7.594-9-14.75 0-2.387 0.948-4.676 2.636-6.364s3.977-2.636 6.364-2.636c2.387 0 4.676 0.948 6.364 2.636s2.636 3.977 2.636 6.364c0 7.154-6.934 13.125-9 14.75z"></path>
</symbol>
<symbol id="mail" viewBox="0 0 32 32">
<path d="M28 6h-24c-0.265 0-0.52 0.105-0.707 0.293s-0.293 0.442-0.293 0.707v17c0 0.53 0.211 1.039 0.586 1.414s0.884 0.586 1.414 0.586h22c0.53 0 1.039-0.211 1.414-0.586s0.586-0.884 0.586-1.414v-17c0-0.265-0.105-0.52-0.293-0.707s-0.442-0.293-0.707-0.293zM25.429 8l-9.429 8.644-9.429-8.644h18.858zM27 24h-22v-14.726l10.324 9.464c0.185 0.169 0.426 0.263 0.676 0.263s0.492-0.094 0.676-0.263l10.324-9.464v14.726z"></path>
</symbol>
<symbol id="instagram" viewBox="0 0 32 32">
<path d="M16 10c-1.187 0-2.347 0.352-3.333 1.011s-1.756 1.596-2.21 2.693c-0.454 1.096-0.573 2.303-0.341 3.467s0.803 2.233 1.642 3.072c0.839 0.839 1.908 1.411 3.072 1.642s2.37 0.113 3.467-0.341c1.096-0.454 2.033-1.223 2.693-2.21s1.011-2.147 1.011-3.333c-0.002-1.591-0.634-3.116-1.759-4.241s-2.65-1.758-4.241-1.759zM16 20c-0.791 0-1.565-0.235-2.222-0.674s-1.171-1.064-1.473-1.795c-0.303-0.731-0.382-1.535-0.228-2.311s0.535-1.489 1.095-2.048c0.559-0.559 1.272-0.94 2.048-1.095s1.58-0.075 2.311 0.228c0.731 0.303 1.356 0.815 1.795 1.473s0.674 1.431 0.674 2.222c0 1.061-0.421 2.078-1.172 2.828s-1.768 1.172-2.828 1.172zM22 3h-12c-1.856 0.002-3.635 0.74-4.948 2.052s-2.050 3.092-2.052 4.948v12c0.002 1.856 0.74 3.635 2.052 4.948s3.092 2.050 4.948 2.052h12c1.856-0.002 3.635-0.74 4.948-2.052s2.050-3.092 2.052-4.948v-12c-0.002-1.856-0.74-3.635-2.052-4.948s-3.092-2.050-4.948-2.052zM27 22c0 1.326-0.527 2.598-1.465 3.535s-2.209 1.465-3.535 1.465h-12c-1.326 0-2.598-0.527-3.536-1.465s-1.464-2.209-1.464-3.535v-12c0-1.326 0.527-2.598 1.464-3.536s2.209-1.464 3.536-1.464h12c1.326 0 2.598 0.527 3.535 1.464s1.465 2.209 1.465 3.536v12zM24 9.5c0 0.297-0.088 0.587-0.253 0.833s-0.399 0.439-0.673 0.552c-0.274 0.114-0.576 0.143-0.867 0.085s-0.558-0.201-0.768-0.411-0.353-0.477-0.411-0.768c-0.058-0.291-0.028-0.593 0.085-0.867s0.306-0.508 0.553-0.673 0.537-0.253 0.833-0.253c0.398 0 0.779 0.158 1.061 0.439s0.439 0.663 0.439 1.061z"></path>
</symbol>
<symbol id="close" viewBox="0 0 32 32">
<path d="M25.707 24.293c0.093 0.093 0.167 0.203 0.217 0.325s0.076 0.252 0.076 0.383c0 0.131-0.026 0.262-0.076 0.383s-0.124 0.232-0.217 0.325c-0.093 0.093-0.203 0.167-0.325 0.217s-0.252 0.076-0.383 0.076-0.262-0.026-0.383-0.076c-0.121-0.050-0.232-0.124-0.325-0.217l-8.293-8.294-8.293 8.294c-0.188 0.188-0.442 0.293-0.707 0.293s-0.52-0.105-0.707-0.293c-0.188-0.188-0.293-0.442-0.293-0.707s0.105-0.52 0.293-0.707l8.294-8.293-8.294-8.293c-0.188-0.188-0.293-0.442-0.293-0.707s0.105-0.52 0.293-0.707c0.188-0.188 0.442-0.293 0.707-0.293s0.52 0.105 0.707 0.293l8.293 8.294 8.293-8.294c0.188-0.188 0.442-0.293 0.707-0.293s0.52 0.105 0.707 0.293c0.188 0.188 0.293 0.442 0.293 0.707s-0.105 0.52-0.293 0.707l-8.294 8.293 8.294 8.293z"></path>
</symbol>
<symbol id="call" viewBox="0 0 32 32">
<path d="M19.034 4.741c0.034-0.127 0.093-0.246 0.173-0.35s0.18-0.192 0.293-0.257c0.114-0.066 0.239-0.108 0.37-0.125s0.263-0.008 0.389 0.026c1.854 0.484 3.545 1.453 4.9 2.808s2.324 3.046 2.808 4.9c0.034 0.127 0.043 0.259 0.026 0.389s-0.060 0.256-0.126 0.37c-0.066 0.114-0.153 0.213-0.257 0.293s-0.223 0.139-0.35 0.172c-0.085 0.022-0.171 0.034-0.259 0.034-0.22 0-0.435-0.073-0.609-0.207s-0.3-0.322-0.357-0.535c-0.394-1.513-1.185-2.894-2.291-4s-2.487-1.897-4-2.291c-0.127-0.034-0.246-0.092-0.351-0.172s-0.192-0.18-0.258-0.293c-0.066-0.114-0.109-0.239-0.126-0.37s-0.009-0.263 0.025-0.39zM18.743 9.966c1.724 0.46 2.831 1.568 3.291 3.291 0.057 0.213 0.182 0.401 0.357 0.535s0.389 0.207 0.609 0.207c0.087-0 0.174-0.012 0.259-0.034 0.127-0.034 0.246-0.093 0.35-0.173s0.192-0.18 0.257-0.293c0.066-0.114 0.108-0.239 0.126-0.37s0.008-0.263-0.026-0.389c-0.64-2.395-2.313-4.068-4.707-4.707-0.127-0.034-0.259-0.042-0.389-0.025s-0.256 0.060-0.369 0.126c-0.114 0.066-0.213 0.153-0.293 0.258s-0.138 0.223-0.172 0.35c-0.034 0.127-0.043 0.259-0.025 0.389s0.060 0.256 0.126 0.369c0.066 0.114 0.153 0.213 0.257 0.293s0.223 0.138 0.35 0.172zM28.985 21.885c-0.223 1.694-1.055 3.249-2.34 4.374s-2.937 1.744-4.645 1.741c-9.925 0-18-8.075-18-18-0.003-1.708 0.616-3.359 1.741-4.645s2.68-2.117 4.374-2.34c0.428-0.052 0.862 0.035 1.236 0.25s0.669 0.544 0.841 0.94l2.64 5.894v0.015c0.131 0.303 0.186 0.634 0.158 0.963s-0.137 0.646-0.317 0.923c-0.023 0.034-0.046 0.065-0.071 0.096l-2.603 3.085c0.936 1.903 2.926 3.875 4.854 4.814l3.043-2.589c0.030-0.025 0.061-0.049 0.094-0.070 0.277-0.185 0.595-0.297 0.926-0.328s0.665 0.022 0.97 0.153l0.016 0.008 5.889 2.639c0.397 0.171 0.727 0.466 0.943 0.84s0.303 0.809 0.251 1.237zM27 21.635c0 0-0.009 0-0.014 0l-5.875-2.631-3.044 2.589c-0.029 0.025-0.060 0.048-0.092 0.070-0.288 0.192-0.621 0.306-0.966 0.331s-0.691-0.040-1.003-0.189c-2.341-1.131-4.675-3.448-5.808-5.764-0.15-0.31-0.217-0.654-0.195-0.998s0.132-0.676 0.32-0.965c0.021-0.034 0.045-0.066 0.071-0.096l2.605-3.089-2.625-5.875c-0.001-0.005-0.001-0.010 0-0.015-1.212 0.158-2.325 0.753-3.13 1.672s-1.248 2.101-1.245 3.324c0.005 4.242 1.692 8.309 4.691 11.309s7.067 4.687 11.309 4.691c1.222 0.004 2.403-0.437 3.323-1.24s1.516-1.915 1.677-3.126v0.001z"></path>
</symbol>
<symbol id="burger" viewBox="0 0 32 32">
<path stroke-width="2" stroke-miterlimit="4" stroke-linecap="round" stroke-linejoin="round" d="M22.667 13.334h-18.667"></path>
<path stroke-width="2" stroke-miterlimit="4" stroke-linecap="round" stroke-linejoin="round" d="M28 8h-24"></path>
<path stroke-width="2" stroke-miterlimit="4" stroke-linecap="round" stroke-linejoin="round" d="M28 18.666h-24"></path>
<path stroke-width="2" stroke-miterlimit="4" stroke-linecap="round" stroke-linejoin="round" d="M22.667 24h-18.667"></path>
</symbol>
<symbol id="arrow-up" viewBox="0 0 32 32">
<path d="M26 4h-20c-0.53 0-1.039 0.211-1.414 0.586s-0.586 0.884-0.586 1.414v20c0 0.53 0.211 1.039 0.586 1.414s0.884 0.586 1.414 0.586h20c0.53 0 1.039-0.211 1.414-0.586s0.586-0.884 0.586-1.414v-20c0-0.53-0.211-1.039-0.586-1.414s-0.884-0.586-1.414-0.586zM26 26h-20v-20h20v20zM11.293 15.707c-0.093-0.093-0.167-0.203-0.217-0.325s-0.076-0.252-0.076-0.383 0.026-0.261 0.076-0.383c0.050-0.121 0.124-0.232 0.217-0.325l4-4c0.093-0.093 0.203-0.167 0.325-0.217s0.252-0.076 0.383-0.076 0.262 0.026 0.383 0.076c0.121 0.050 0.232 0.124 0.325 0.217l4 4c0.093 0.093 0.167 0.203 0.217 0.325s0.076 0.252 0.076 0.383c0 0.131-0.026 0.261-0.076 0.383s-0.124 0.232-0.217 0.325c-0.093 0.093-0.203 0.167-0.325 0.217s-0.252 0.076-0.383 0.076c-0.131 0-0.262-0.026-0.383-0.076s-0.232-0.124-0.325-0.217l-2.293-2.294v7.586c0 0.265-0.105 0.52-0.293 0.707s-0.442 0.293-0.707 0.293c-0.265 0-0.52-0.105-0.707-0.293s-0.293-0.442-0.293-0.707v-7.586l-2.293 2.294c-0.093 0.093-0.203 0.167-0.325 0.217s-0.252 0.076-0.383 0.076-0.261-0.026-0.383-0.076c-0.121-0.050-0.232-0.124-0.325-0.217z"></path>
</symbol>
<symbol id="arrow-right-disable" viewBox="0 0 32 32">
<path fill="#9cb99c" style="fill: var(--color1, #9cb99c)" d="M27.707 16.707l-9 9c-0.188 0.188-0.442 0.293-0.707 0.293s-0.52-0.105-0.707-0.293c-0.188-0.188-0.293-0.442-0.293-0.708s0.105-0.52 0.293-0.707l7.294-7.293h-19.586c-0.265 0-0.52-0.105-0.707-0.293s-0.293-0.442-0.293-0.707 0.105-0.519 0.293-0.707c0.188-0.188 0.442-0.293 0.707-0.293h19.586l-7.294-7.292c-0.188-0.188-0.293-0.442-0.293-0.708s0.105-0.52 0.293-0.707c0.188-0.188 0.442-0.293 0.707-0.293s0.52 0.105 0.707 0.293l9 9c0.093 0.093 0.167 0.203 0.217 0.325s0.076 0.252 0.076 0.383c0 0.131-0.026 0.262-0.076 0.383s-0.124 0.232-0.217 0.325z"></path>
</symbol>
<symbol id="arrow-right-active" viewBox="0 0 32 32">
<path d="M27.707 16.707l-9 9c-0.188 0.188-0.442 0.293-0.707 0.293s-0.52-0.105-0.707-0.293c-0.188-0.188-0.293-0.442-0.293-0.708s0.105-0.52 0.293-0.707l7.294-7.293h-19.586c-0.265 0-0.52-0.105-0.707-0.293s-0.293-0.442-0.293-0.707 0.105-0.519 0.293-0.707c0.188-0.188 0.442-0.293 0.707-0.293h19.586l-7.294-7.292c-0.188-0.188-0.293-0.442-0.293-0.708s0.105-0.52 0.293-0.707c0.188-0.188 0.442-0.293 0.707-0.293s0.52 0.105 0.707 0.293l9 9c0.093 0.093 0.167 0.203 0.217 0.325s0.076 0.252 0.076 0.383c0 0.131-0.026 0.262-0.076 0.383s-0.124 0.232-0.217 0.325z"></path>
</symbol>
<symbol id="arrow-left-disable" viewBox="0 0 32 32">
<path fill="#9cb99c" style="fill: var(--color1, #9cb99c)" d="M28 16c0 0.265-0.105 0.52-0.293 0.707s-0.442 0.293-0.707 0.293h-19.586l7.294 7.293c0.093 0.093 0.167 0.203 0.217 0.325s0.076 0.251 0.076 0.383c0 0.131-0.026 0.262-0.076 0.383s-0.124 0.232-0.217 0.325c-0.093 0.093-0.203 0.167-0.325 0.217s-0.251 0.076-0.383 0.076c-0.131 0-0.261-0.026-0.383-0.076s-0.232-0.124-0.325-0.217l-9-9c-0.093-0.093-0.167-0.203-0.217-0.325s-0.076-0.251-0.076-0.383c0-0.131 0.026-0.261 0.076-0.383s0.124-0.232 0.217-0.325l9-9c0.188-0.188 0.442-0.293 0.707-0.293s0.52 0.105 0.707 0.293c0.188 0.188 0.293 0.442 0.293 0.707s-0.105 0.52-0.293 0.707l-7.294 7.292h19.586c0.265 0 0.52 0.105 0.707 0.293s0.293 0.442 0.293 0.707z"></path>
</symbol>
<symbol id="arrow-left-active" viewBox="0 0 32 32">
<path d="M28 16c0 0.265-0.105 0.52-0.293 0.707s-0.442 0.293-0.707 0.293h-19.586l7.294 7.293c0.093 0.093 0.167 0.203 0.217 0.325s0.076 0.251 0.076 0.383c0 0.131-0.026 0.262-0.076 0.383s-0.124 0.232-0.217 0.325c-0.093 0.093-0.203 0.167-0.325 0.217s-0.251 0.076-0.383 0.076c-0.131 0-0.261-0.026-0.383-0.076s-0.232-0.124-0.325-0.217l-9-9c-0.093-0.093-0.167-0.203-0.217-0.325s-0.076-0.251-0.076-0.383c0-0.131 0.026-0.261 0.076-0.383s0.124-0.232 0.217-0.325l9-9c0.188-0.188 0.442-0.293 0.707-0.293s0.52 0.105 0.707 0.293c0.188 0.188 0.293 0.442 0.293 0.707s-0.105 0.52-0.293 0.707l-7.294 7.292h19.586c0.265 0 0.52 0.105 0.707 0.293s0.293 0.442 0.293 0.707z"></path>
</symbol>
</defs>
</svg>
